<?xml version="1.0" standalone="no"?>
<!DOCTYPE svg PUBLIC "-//W3C//DTD SVG 20010904//EN"
 "http://www.w3.org/TR/2001/REC-SVG-20010904/DTD/svg10.dtd">
<svg version="1.0" xmlns="http://www.w3.org/2000/svg"
 width="700.000000pt" height="700.000000pt" viewBox="0 0 700.000000 700.000000"
 preserveAspectRatio="xMidYMid meet">
<metadata>
Created by potrace 1.14, written by Peter Selinger 2001-2017
</metadata>
<g transform="translate(0.000000,700.000000) scale(0.100000,-0.100000)"
fill="#000000" stroke="none">
<path d="M2422 5924 l-1073 -1075 396 -395 397 -396 679 679 679 680 680 -680
680 -680 396 395 396 396 -1076 1076 c-592 592 -1077 1076 -1078 1075 -2 0
-486 -484 -1076 -1075z"/>
<path d="M3095 3900 l-399 -400 402 -402 402 -402 403 402 402 402 -400 400
c-220 220 -402 400 -405 400 -3 0 -185 -180 -405 -400z"/>
<path d="M401 3901 c-215 -215 -391 -395 -391 -401 0 -6 176 -186 391 -401
l391 -391 396 396 395 397 -395 395 -396 396 -391 -391z"/>
<path d="M5811 3894 l-394 -395 396 -395 395 -396 396 396 396 396 -383 383
c-210 210 -389 387 -397 394 -12 9 -85 -59 -409 -383z"/>
<path d="M1745 2547 l-397 -395 1076 -1076 1076 -1076 1076 1076 1076 1076
-396 396 -396 395 -680 -680 -680 -679 -679 679 -679 679 -397 -395z"/>
</g>
</svg>
